<svg xmlns="http://www.w3.org/2000/svg" viewBox="0 0 950 530" role="img" aria-label="Nhà điều hành · Tầng 1 · Sơ đồ cũ, xoay trái 90 độ">
<title>Nhà điều hành · Tầng 1 · Xoay 90° ngược chiều kim đồng hồ</title>
<desc>Vẽ lại từ sơ đồ CampusMap cũ, commit 3b252a72997c134db1415f2d94d9018c840c8709, src/features/campus-map/campus-data.ts. Giữ nguyên hình học sau khi xoay. Người dùng xác nhận mã NĐH101–109 tương ứng phòng 1.1–1.9; nhãn và ID hình đã chuẩn hóa theo inventory.</desc>
<style>
  .outline{fill:#fff;stroke:#9f5360;stroke-width:3;stroke-linejoin:miter}
  .room{fill:#70c9e5;fill-opacity:.78;stroke:#9f5360;stroke-width:2.6}
  .hallway{fill:#f5f9fa;stroke:#9f5360;stroke-width:2}
  .stairs{fill:#dcebf5;stroke:#9f5360;stroke-width:2.4}
  .elevator{fill:#c9e4ef;stroke:#9f5360;stroke-width:2.4}
  .wc{fill:#dce8e8;stroke:#9f5360;stroke-width:2.4}
  .room-code{font:600 16px Arial,sans-serif;fill:#164966;text-anchor:middle}
  .detail-label{font:9px Arial,sans-serif;fill:#164966;text-anchor:middle}
  .note{font:13px Arial,sans-serif;fill:#64748b}
</style>
<g transform="translate(-25 -450)">
<text class="note" x="40" y="475">Nhà điều hành · Tầng 1 · Phòng 1.1–1.9</text>
<path id="ndh1-outline" class="outline" d="M 40 960 V 540 H 380 V 490 H 620 V 540 H 960 V 960 Z"><title>NDH1-outline</title></path>
<g id="ndh1-main-hallway"><title>Hành lang</title>
<rect class="hallway" x="50" y="710" width="900" height="80"/>
<text class="detail-label" x="500" y="750" dominant-baseline="middle">Hành lang</text>
</g>
<g id="room-ndh1-1"><title>NĐH 1.1</title>
<rect class="room" x="50" y="800" width="150" height="150"/>
<text class="room-code" x="125" y="875" dominant-baseline="middle">NĐH 1.1</text>
</g>
<g id="room-ndh1-2"><title>NĐH 1.2</title>
<rect class="room" x="200" y="800" width="150" height="150"/>
<text class="room-code" x="275" y="875" dominant-baseline="middle">NĐH 1.2</text>
</g>
<g id="room-ndh1-3"><title>NĐH 1.3</title>
<rect class="room" x="350" y="800" width="300" height="150"/>
<text class="room-code" x="500" y="875" dominant-baseline="middle">NĐH 1.3</text>
</g>
<g id="room-ndh1-4"><title>NĐH 1.4</title>
<rect class="room" x="650" y="800" width="150" height="150"/>
<text class="room-code" x="725" y="875" dominant-baseline="middle">NĐH 1.4</text>
</g>
<g id="room-ndh1-5"><title>NĐH 1.5</title>
<rect class="room" x="800" y="800" width="150" height="150"/>
<text class="room-code" x="875" y="875" dominant-baseline="middle">NĐH 1.5</text>
</g>
<g id="nvs-f1-b"><title>WC</title>
<rect class="wc" x="50" y="550" width="80" height="50"/>
<text class="detail-label" x="90" y="575" dominant-baseline="middle">WC</text>
</g>
<g id="ndh1-top-hallway"><title>Hành lang nhỏ</title>
<rect class="hallway" x="50" y="600" width="30" height="100"/>
</g>
<g id="ndh1-stair"><title>Thang bộ</title>
<rect class="stairs" x="80" y="600" width="50" height="100"/>
<text class="detail-label" x="105" y="650" dominant-baseline="middle">Thang bộ</text>
</g>
<g id="room-ndh1-6"><title>NĐH 1.6</title>
<rect class="room" x="130" y="550" width="130" height="150"/>
<text class="room-code" x="195" y="625" dominant-baseline="middle">NĐH 1.6</text>
</g>
<g id="room-ndh1-7"><title>NĐH 1.7</title>
<rect class="room" x="260" y="550" width="130" height="150"/>
<text class="room-code" x="325" y="625" dominant-baseline="middle">NĐH 1.7</text>
</g>
<g id="nvs-f1-b-2"><title>WC</title>
<rect class="wc" x="390" y="500" width="50" height="50"/>
<text class="detail-label" x="415" y="525" dominant-baseline="middle">WC</text>
</g>
<g id="ndh1-elevator"><title>Thang máy</title>
<rect class="elevator" x="390" y="550" width="50" height="150"/>
<text class="detail-label" x="415" y="625" dominant-baseline="middle">Thang máy</text>
</g>
<g id="ndh1-side-hallway"><title>Hành lang nhỏ</title>
<rect class="hallway" x="450" y="490" width="100" height="220"/>
<text class="detail-label" x="500" y="600" dominant-baseline="middle">Hành lang nhỏ</text>
</g>
<g id="ndh1-stair-2"><title>Thang bộ</title>
<rect class="stairs" x="560" y="550" width="50" height="150"/>
<text class="detail-label" x="585" y="625" dominant-baseline="middle">Thang bộ</text>
</g>
<g id="nvs-f1-b-3"><title>WC</title>
<rect class="wc" x="560" y="500" width="50" height="50"/>
<text class="detail-label" x="585" y="525" dominant-baseline="middle">WC</text>
</g>
<g id="room-ndh1-8"><title>NĐH 1.8</title>
<rect class="room" x="610" y="550" width="130" height="150"/>
<text class="room-code" x="675" y="625" dominant-baseline="middle">NĐH 1.8</text>
</g>
<g id="room-ndh1-9"><title>NĐH 1.9</title>
<rect class="room" x="740" y="550" width="130" height="150"/>
<text class="room-code" x="805" y="625" dominant-baseline="middle">NĐH 1.9</text>
</g>
<g id="ndh1-stair-3"><title>Thang bộ</title>
<rect class="stairs" x="870" y="600" width="50" height="100"/>
<text class="detail-label" x="895" y="650" dominant-baseline="middle">Thang bộ</text>
</g>
<g id="ndh1-left-hallway"><title>Hành lang nhỏ</title>
<rect class="hallway" x="920" y="600" width="30" height="100"/>
</g>
<g id="nvs-f1-b-4"><title>WC</title>
<rect class="wc" x="870" y="550" width="80" height="50"/>
<text class="detail-label" x="910" y="575" dominant-baseline="middle">WC</text>
</g>
</g>
</svg>
